<svg version="1.2" xmlns="http://www.w3.org/2000/svg" viewBox="0 0 1566 289" width="1566" height="289"><defs><clipPath clipPathUnits="userSpaceOnUse" id="cp1"><path d="m0 0h1566v289h-1566z"/></clipPath></defs><style>.a{fill:#eee}.b{fill:none;stroke:#3160a5;stroke-width:3}</style><g clip-path="url(#cp1)"><path class="a" d="m1142 174c-8.3 0-15-6.7-15-15 0-8.3 6.7-15 15-15 8.3 0 15 6.7 15 15 0 8.3-6.7 15-15 15z"/><path class="a" d="m424 174c-8.3 0-15-6.7-15-15 0-8.3 6.7-15 15-15 8.3 0 15 6.7 15 15 0 8.3-6.7 15-15 15z"/><path class="a" d="m780.5 289l831-295.5h-1662z"/><path class="b" d="m-41.8-5l822.3 292.4 822.3-292.4z"/></g></svg>