<svg width="788" height="788" viewBox="0 0 788 788" fill="none" xmlns="http://www.w3.org/2000/svg">
<line x1="392.85" y1="787.619" x2="392.85" y2="0.618042" stroke="url(#paint0_linear_456_46)" stroke-width="2.5" stroke-dasharray="20 20"/>
<line x1="787.002" y1="394.85" x2="0.00174018" y2="395.887" stroke="url(#paint1_linear_456_46)" stroke-width="2.5" stroke-dasharray="20 20"/>
<path d="M274.6 395.5C274.6 399.918 278.182 403.5 282.6 403.5C287.018 403.5 290.6 399.918 290.6 395.5C290.6 391.082 287.018 387.5 282.6 387.5C278.182 387.5 274.6 391.082 274.6 395.5ZM496.6 395.5C496.6 399.918 500.182 403.5 504.6 403.5C509.018 403.5 512.6 399.918 512.6 395.5C512.6 391.082 509.018 387.5 504.6 387.5C500.182 387.5 496.6 391.082 496.6 395.5ZM282.6 397H504.6V394H282.6V397Z" fill="#13376D"/>
<path d="M393.1 278C388.682 278 385.1 281.582 385.1 286C385.1 290.418 388.682 294 393.1 294C397.518 294 401.1 290.418 401.1 286C401.1 281.582 397.518 278 393.1 278ZM393.1 500C388.682 500 385.1 503.582 385.1 508C385.1 512.418 388.682 516 393.1 516C397.518 516 401.1 512.418 401.1 508C401.1 503.582 397.518 500 393.1 500ZM391.6 286V508H394.6V286H391.6Z" fill="#13376D"/>
<path d="M393 328.501L405.308 371.927L405.705 373.329L407.118 372.972L450.642 361.986L419.42 394.46L418.421 395.5L419.42 396.54L450.642 429.014L407.118 418.028L405.705 417.671L405.308 419.073L393 462.499L380.692 419.073L380.295 417.671L378.882 418.028L335.358 429.014L366.58 396.54L367.579 395.5L366.58 394.46L335.358 361.986L378.882 372.972L380.295 373.329L380.692 371.927L393 328.501Z" fill="#FAFF00" stroke="#13376D" stroke-width="3"/>
<defs>
<linearGradient id="paint0_linear_456_46" x1="393.107" y1="787.617" x2="394.137" y2="3.61798" gradientUnits="userSpaceOnUse">
<stop stop-color="#13376D" stop-opacity="0"/>
<stop offset="0.25" stop-color="#13376D"/>
<stop offset="0.753289" stop-color="#13376D"/>
<stop offset="1" stop-color="#13376D" stop-opacity="0"/>
</linearGradient>
<linearGradient id="paint1_linear_456_46" x1="787" y1="394.593" x2="2.99998" y2="394.596" gradientUnits="userSpaceOnUse">
<stop stop-color="#13376D" stop-opacity="0"/>
<stop offset="0.25" stop-color="#13376D"/>
<stop offset="0.753289" stop-color="#13376D"/>
<stop offset="1" stop-color="#13376D" stop-opacity="0"/>
</linearGradient>
</defs>
</svg>
